<svg xmlns="http://www.w3.org/2000/svg" width="256" height="256"><path fill-opacity=".016" d="M0 128.004v128.004l128.25-.254 128.25-.254.254-127.75L257.008 0H0v128.004m.485.496c0 70.4.119 99.053.265 63.672.146-35.38.146-92.98 0-128C.604 29.153.485 58.1.485 128.5" fill="#212121" fill-rule="evenodd"/><path fill-opacity=".263" d="M30.667 30.667c-.367.366-.667 44.466-.667 98V226h196V30h-97.333c-53.534 0-97.634.3-98 .667M42 45.455c0 3.211.264 3.499 3.75 4.094 16.049 2.739 16.521 3.185 45.971 43.344l25.222 34.393-6.695 8.607c-26.372 33.907-43.87 55.437-49.072 60.38-5.951 5.655-14.705 10.684-18.676 10.731-4.994.058-6.5 1.127-6.5 4.613V215h60v-6.724l-6.75-.689c-11.468-1.172-13.236-3.78-8.89-13.112 3.459-7.428 40.18-55.225 43.147-56.162 1.324-.418 32.654 46.496 36.053 53.987 4.25 9.365 2.061 12.81-9.424 14.833-6.097 1.074-6.136 1.102-6.136 4.474V215h75v-3.386c0-3.219-.211-3.419-4.257-4.025-6.427-.964-14.169-4.959-18.956-9.781-5.002-5.039-56.787-75.083-56.787-76.809 0-1.736 36.323-48.494 43.394-55.861 6.765-7.049 14.039-11.113 19.916-11.128 3.791-.01 3.809-.03 3.5-3.76l-.31-3.75-29.75-.265L146 45.97V54l4.75.004c11.771.009 15.432 8.417 9.007 20.684-4.549 8.686-28.097 37.758-29.228 36.086l-12.891-19.035C102.683 69.657 100 64.872 100 60.285c0-6.109 2.884-9.06 10-10.232 3.198-.526 3.527-.899 3.81-4.315l.311-3.738H42v3.455" fill="#212121" fill-rule="evenodd"/><path fill-opacity=".113" d="M31 128.505v97.505l97.25-.255 97.25-.255.255-97.25.255-97.25H31v97.505M41.19 45.75l.31 3.75 5.7.708c7.263.902 14.184 4.45 19.422 9.958 4.02 4.227 48.099 63.944 49.074 66.484.618 1.612-43.849 58.517-52.836 67.615-7.257 7.346-14.63 11.442-22.64 12.579-4.591.652-4.728.772-5.03 4.413L34.879 215H97v-7.737l-7.464-.479c-4.105-.263-8.155-1.053-9-1.754-4.999-4.149.941-14.291 29.298-50.03 11.067-13.947 12.864-15.951 14.339-15.985.976-.022 32.012 46.635 34.624 52.051 1.212 2.511 2.203 6.212 2.203 8.224 0 3.083-.49 3.912-3.113 5.268-1.711.885-5.536 1.86-8.5 2.166l-5.387.556V215H220.121l-.311-3.677c-.303-3.595-.431-3.701-5.81-4.783-7.724-1.555-15.492-6.115-20.457-12.008-2.331-2.768-15.572-20.46-29.424-39.317l-25.186-34.286 20.257-26.214c27.481-35.564 31.143-39.02 42.811-40.401l4.999-.593V46h-61v4c0 3.845.126 4 3.25 4.006 1.787.003 4.937.474 6.998 1.046 7.377 2.049 8.589 10.502 2.897 20.215-3.997 6.821-26.103 34.738-27.485 34.709-1.693-.034-28.654-41.124-30.336-46.235-1.052-3.195-1.158-5.048-.401-7.039 1.299-3.415 6.597-6.693 10.827-6.698C114.874 50 115 49.845 115 46v-4H40.879l.311 3.75" fill="#212121" fill-rule="evenodd"/><path fill-opacity=".409" d="M31 128v97h194V31H31v97m10-82.638v4.363l5.75.661c7.302.839 15.123 4.622 19.423 9.394 7.595 8.428 49.873 67.338 49.163 68.503-2.976 4.884-48.985 62.332-53.425 66.708-6.608 6.513-12.553 9.694-20.849 11.155L35 207.214v8.814l31.25-.264 31.25-.264.3-4.107.301-4.106-6.801-.695c-17.975-1.837-16.304-6.566 17.433-49.342 7.917-10.037 14.707-18.25 15.09-18.25 1.084 0 32.853 47.948 35.117 53 4.118 9.192 2.249 12.32-8.53 14.273l-6.91 1.252v7.975l36.5.279c20.075.153 37.513.032 38.75-.269 1.854-.452 2.25-1.233 2.25-4.441 0-3.806-.095-3.909-4.25-4.581-5.676-.918-12.06-3.774-16.765-7.5-3.771-2.987-7.91-8.374-42.766-55.663l-17.082-23.175 19.548-25.325c27.371-35.461 30.968-38.835 43.065-40.402l5.25-.681v-8.77l-31.25.264-31.25.264-.301 4.115-.301 4.115 5.967.675c8.561.969 11.138 3.267 11.123 9.918-.009 3.984-.758 6.488-3.25 10.868-4.183 7.351-24.931 33.786-26.238 33.429-1.329-.363-26.204-37.011-28.589-42.12-4.227-9.056-1.572-14.946 7.266-16.118l4.823-.64V41H41v4.362" fill="#212121" fill-rule="evenodd"/></svg>